<?xml version="1.0" encoding="UTF-8" standalone="no"?>
<!-- Created with Inkscape (http://www.inkscape.org/) -->

<svg
   xmlns:dc="http://purl.org/dc/elements/1.1/"
   xmlns:cc="http://creativecommons.org/ns#"
   xmlns:rdf="http://www.w3.org/1999/02/22-rdf-syntax-ns#"
   xmlns:svg="http://www.w3.org/2000/svg"
   xmlns="http://www.w3.org/2000/svg"
   xmlns:sodipodi="http://sodipodi.sourceforge.net/DTD/sodipodi-0.dtd"
   xmlns:inkscape="http://www.inkscape.org/namespaces/inkscape"
   width="300mm"
   height="180mm"
   viewBox="0 0 300 180"
   version="1.1"
   id="svg8"
   inkscape:version="0.92.4 5da689c313, 2019-01-14"
   sodipodi:docname="min-angle.svg">
  <defs
     id="defs2" />
  <sodipodi:namedview
     id="base"
     pagecolor="#ffffff"
     bordercolor="#666666"
     borderopacity="1.0"
     inkscape:pageopacity="0.0"
     inkscape:pageshadow="2"
     inkscape:zoom="0.35"
     inkscape:cx="-82.857143"
     inkscape:cy="560"
     inkscape:document-units="mm"
     inkscape:current-layer="layer1"
     showgrid="false"
     inkscape:window-width="1364"
     inkscape:window-height="739"
     inkscape:window-x="0"
     inkscape:window-y="27"
     inkscape:window-maximized="0"
     height="180mm"
     inkscape:object-paths="true" />
  <metadata
     id="metadata5">
    <rdf:RDF>
      <cc:Work
         rdf:about="">
        <dc:format>image/svg+xml</dc:format>
        <dc:type
           rdf:resource="http://purl.org/dc/dcmitype/StillImage" />
        <dc:title />
      </cc:Work>
    </rdf:RDF>
  </metadata>
  <g
     inkscape:label="Layer 1"
     inkscape:groupmode="layer"
     id="layer1"
     transform="translate(0,-117)">
    <circle
       style="fill:none;fill-opacity:1;stroke:#000000;stroke-width:1;stroke-miterlimit:4;stroke-dasharray:none;stroke-opacity:1;marker-start:none;marker-end:none"
       id="path812"
       cx="167.82143"
       cy="224.42857"
       r="54.42857" />
    <path
       style="fill:none;stroke:#000000;stroke-width:1;stroke-linecap:butt;stroke-linejoin:miter;stroke-opacity:1;stroke-miterlimit:4;stroke-dasharray:none"
       d="m 117.71548,245.68564 28.66548,-71.28482 74.33163,62.87275 z"
       id="path816"
       inkscape:connector-curvature="0" />
    <path
       style="fill:none;stroke:#000000;stroke-width:1;stroke-linecap:butt;stroke-linejoin:miter;stroke-opacity:1;stroke-miterlimit:4;stroke-dasharray:none"
       d="m 174.625,262.22619 -56.90952,-16.54055 102.99711,-8.41207 z"
       id="path818"
       inkscape:connector-curvature="0" />
    <path
       style="fill:none;stroke:#930000;stroke-width:1;stroke-linecap:butt;stroke-linejoin:miter;stroke-opacity:1;stroke-miterlimit:4;stroke-dasharray:none"
       d="M 146.38096,174.40082 174.625,262.22619"
       id="path820"
       inkscape:connector-curvature="0" />
    <path
       style="fill:none;stroke:#0000ff;stroke-width:1;stroke-linecap:butt;stroke-linejoin:miter;stroke-opacity:1;stroke-miterlimit:4;stroke-dasharray:none"
       d="m 151.22132,242.94912 c 0.49369,0.88204 1.07759,1.71933 1.48106,2.64612 0.1431,0.32872 0,2.43786 0,3.02381 0,0.71198 0.14334,3.34972 0,3.77976 -0.11269,0.33807 -0.59659,0.43721 -0.75595,0.75595 -0.11269,0.22538 0.11269,0.53057 0,0.75595 -0.15937,0.31874 -0.59659,0.43722 -0.75596,0.75595 -0.11269,0.22539 0,0.50397 0,0.75596 -0.25198,0.25198 -0.59658,0.43721 -0.75595,0.75595 -0.11269,0.22538 0.17818,0.57777 0,0.75595 -0.17818,0.17818 -0.53057,-0.11269 -0.75595,0 -0.19681,0.0984 -0.92096,1.3469 -1.51191,0.75595 -0.0918,-0.0918 -0.0687,-1.81317 0,-2.26785 0.0424,-0.28057 0.15839,-0.54494 0.23758,-0.8174"
       id="path822"
       inkscape:connector-curvature="0" />
    <path
       style="fill:none;stroke:#000000;stroke-width:1;stroke-linecap:butt;stroke-linejoin:miter;stroke-opacity:1;stroke-miterlimit:4;stroke-dasharray:none"
       d="m 117.71548,245.68564 82.02884,22.82692"
       id="path824"
       inkscape:connector-curvature="0" />
    <path
       style="fill:none;stroke:#0000ff;stroke-width:1;stroke-linecap:butt;stroke-linejoin:miter;stroke-opacity:1;stroke-miterlimit:4;stroke-dasharray:none"
       d="m 146.38096,174.40082 53.36336,94.11174"
       id="path826"
       inkscape:connector-curvature="0" />
    <path
       style="fill:none;stroke:#0000ff;stroke-width:1;stroke-linecap:butt;stroke-linejoin:miter;stroke-opacity:1;stroke-miterlimit:4;stroke-dasharray:none"
       d="m 166.53204,209.93931 c 0.93376,-0.20993 1.85887,-0.46294 2.80129,-0.62979 0.24813,-0.0439 0.5169,0.0797 0.75595,0 1.74456,-0.58152 3.02381,-1.83045 3.02381,-3.77976 0,-0.25198 0,-0.50397 0,-0.75595 0,-0.25199 0.17818,-0.57778 0,-0.75595 -0.17818,-0.17818 -0.57777,0.17817 -0.75595,0 -0.35636,-0.35636 0.35636,-1.15555 0,-1.51191 -0.18076,-0.18076 -1.58313,0.43275 -0.75595,-0.75595 0.87465,-1.25693 1.97784,-2.33831 2.96676,-3.50747"
       id="path828"
       inkscape:connector-curvature="0" />
    <path
       style="fill:none;stroke:#930000;stroke-width:1;stroke-linecap:butt;stroke-linejoin:miter;stroke-opacity:1;stroke-miterlimit:4;stroke-dasharray:none"
       d="m 153.62246,196.91839 8.13467,-9.51177"
       id="path830"
       inkscape:connector-curvature="0" />
  </g>
</svg>
