<?xml version="1.0" encoding="UTF-8" standalone="no"?>
<!-- Created with Inkscape (http://www.inkscape.org/) -->

<svg
   xmlns:dc="http://purl.org/dc/elements/1.1/"
   xmlns:cc="http://creativecommons.org/ns#"
   xmlns:rdf="http://www.w3.org/1999/02/22-rdf-syntax-ns#"
   xmlns:svg="http://www.w3.org/2000/svg"
   xmlns="http://www.w3.org/2000/svg"
   xmlns:sodipodi="http://sodipodi.sourceforge.net/DTD/sodipodi-0.dtd"
   xmlns:inkscape="http://www.inkscape.org/namespaces/inkscape"
   width="300mm"
   height="180mm"
   viewBox="0 0 300 180"
   version="1.1"
   id="svg8"
   inkscape:version="0.92.4 5da689c313, 2019-01-14"
   sodipodi:docname="circles-subgraph.svg">
  <defs
     id="defs2" />
  <sodipodi:namedview
     id="base"
     pagecolor="#ffffff"
     bordercolor="#666666"
     borderopacity="1.0"
     inkscape:pageopacity="0.0"
     inkscape:pageshadow="2"
     inkscape:zoom="0.35"
     inkscape:cx="-197.14286"
     inkscape:cy="560"
     inkscape:document-units="mm"
     inkscape:current-layer="layer1"
     showgrid="false"
     inkscape:window-width="1364"
     inkscape:window-height="739"
     inkscape:window-x="0"
     inkscape:window-y="27"
     inkscape:window-maximized="0"
     height="180mm"
     inkscape:snap-intersection-paths="true"
     inkscape:snap-object-midpoints="true" />
  <metadata
     id="metadata5">
    <rdf:RDF>
      <cc:Work
         rdf:about="">
        <dc:format>image/svg+xml</dc:format>
        <dc:type
           rdf:resource="http://purl.org/dc/dcmitype/StillImage" />
        <dc:title />
      </cc:Work>
    </rdf:RDF>
  </metadata>
  <g
     inkscape:label="Layer 1"
     inkscape:groupmode="layer"
     id="layer1"
     transform="translate(0,-117)">
    <circle
       style="fill:#ff0000;fill-opacity:1;stroke:#000000;stroke-width:1;stroke-miterlimit:4;stroke-dasharray:none;stroke-opacity:1;marker-start:none;marker-end:none"
       id="path11"
       cx="49.892857"
       cy="235.0119"
       r="44.601192" />
    <circle
       style="fill:#ff0000;fill-opacity:1;stroke:#000000;stroke-width:1;stroke-miterlimit:4;stroke-dasharray:none;stroke-opacity:1;marker-start:none;marker-end:none"
       id="path21"
       cx="68.791664"
       cy="134.47025"
       r="57.452377" />
    <circle
       style="fill:#ff0000;fill-opacity:1;stroke:#000000;stroke-width:1;stroke-miterlimit:4;stroke-dasharray:none;stroke-opacity:1;marker-start:none;marker-end:none"
       id="path23"
       cx="123.97619"
       cy="238.79166"
       r="27.97023" />
    <path
       style="fill:none;stroke:#000000;stroke-width:1;stroke-linecap:butt;stroke-linejoin:miter;stroke-opacity:1;stroke-miterlimit:4;stroke-dasharray:none"
       d="m 54.428572,213.08928 c 1.349216,1.78092 2.742642,3.85722 4.535712,5.29167 0.709454,0.56756 1.625423,0.86947 2.267858,1.51191 0.398423,0.39842 0.403966,1.07192 0.755951,1.5119 5.007743,5.00774 0.555694,0.0776 3.023812,3.77976 0.19767,0.29651 0.596583,0.43722 0.755952,0.75595 0.112691,0.22539 -0.112692,0.53058 0,0.75596 0.159369,0.31873 0.596582,0.43721 0.755951,0.75595 0.223015,0.44603 -0.173323,1.74789 0,2.26786 0.178181,0.53454 0.577774,0.97736 0.755952,1.5119 0.03243,0.0973 0.03131,2.20525 0,2.26786 -0.159367,0.31874 -0.596583,0.43721 -0.755952,0.75595 -0.112691,0.22538 0.112692,0.53057 0,0.75595 -0.159369,0.31874 -0.596582,0.43722 -0.755951,0.75596 -0.225383,0.45076 0.22538,1.06114 0,1.5119 -0.159369,0.31874 -0.503968,0.50397 -0.755952,0.75595"
       id="path27"
       inkscape:connector-curvature="0" />
  </g>
  <g
     inkscape:groupmode="layer"
     id="layer2"
     inkscape:label="Layer 2">
    <path
       transform="translate(0,-117)"
       style="fill:none;stroke:#000000;stroke-width:1;stroke-linecap:butt;stroke-linejoin:miter;stroke-opacity:1;stroke-miterlimit:4;stroke-dasharray:none"
       d="M 68.791666,134.47024 49.892857,235.0119 123.97619,238.79166"
       id="path19"
       inkscape:connector-curvature="0" />
  </g>
</svg>
